# xmcd
#
# Track frame offsets:
#	150
#	4252
#	24260
#	49792
#	75603
#	100153
#	133732
#	181951
#	209007
#
# Disc length: 3075 seconds
#
# Revision: 1
# Processed by: cddbd v1.5.2PL0 Copyright (c) Steve Scherf et al.
# Submitted via: EasyCDDAExtractor 12.0.0.1
#
DISCID=710c0109
DTITLE=Henrik Freischlader - Henrik Freischlader Band Live
DYEAR=2008
DGENRE=Blues
TTITLE0=Intro
TTITLE1=You
TTITLE2=Tired Of Beggin'
TTITLE3=Oh Pretty Woman
TTITLE4=Not Of That Kind
TTITLE5=Dirty Low Down And Bad
TTITLE6=When I First Saw You
TTITLE7=Tightrope
TTITLE8=She Ain't Got The Blues
EXTD=Live Bootlegs: Recorded 2006+2007
EXTT0=
EXTT1=
EXTT2=
EXTT3=
EXTT4=
EXTT5=
EXTT6=
EXTT7=
EXTT8=
PLAYORDER=
